<svg width="36" height="37" viewBox="0 0 36 37" fill="none" xmlns="http://www.w3.org/2000/svg">
<path d="M13.2552 9.71608C13.2552 11.8055 14.7548 13.5543 16.732 13.9448V17.9782H11.1159V18.809C11.1159 20.2671 9.9279 21.4551 8.46987 21.4551C7.01184 21.4551 5.82381 20.2671 5.82381 18.809V17.9782H0C0 8.7397 7.49348 1.25037 16.732 1.25037V5.49153C14.7506 5.87785 13.2552 7.62665 13.2552 9.71608Z" fill="#DD8304"/>
<path d="M20.2089 27.9062C20.2089 29.3642 19.0209 30.5523 17.5628 30.5523H16.732V36.3761C7.49119 36.3761 0 28.8807 0 19.6399H4.24116C4.62748 21.6172 6.37629 23.1167 8.46987 23.1167C10.5593 23.1167 12.3081 21.6172 12.6986 19.6399H16.732V25.256H17.5628C19.0209 25.256 20.2089 26.444 20.2089 27.9062Z" fill="#DD8304"/>
<path d="M35.1214 19.6398C35.1214 28.8783 27.6321 36.3718 18.3936 36.3718V32.1307C18.4309 32.1224 18.4642 32.1182 18.5016 32.1099C18.5265 32.1057 18.5514 32.0974 18.5763 32.0933C18.6054 32.085 18.6386 32.0767 18.6677 32.0684C18.6968 32.06 18.73 32.0517 18.7591 32.0434C18.7882 32.0351 18.8173 32.0268 18.8463 32.0185C18.8505 32.0185 18.8505 32.0185 18.8546 32.0144C18.8796 32.006 18.9045 31.9977 18.9294 31.9894C18.9377 31.9853 18.946 31.9853 18.9543 31.9811C18.9751 31.9728 19 31.9645 19.0208 31.9604C19.025 31.9604 19.0291 31.9562 19.0333 31.9562C19.0623 31.9479 19.0873 31.9354 19.1163 31.9271C19.1454 31.9147 19.1745 31.9063 19.2036 31.8939C19.2243 31.8856 19.2493 31.8773 19.27 31.8648C19.2908 31.8565 19.3116 31.8482 19.3282 31.8399C19.349 31.8316 19.3697 31.8191 19.3905 31.8108C19.4237 31.7942 19.4611 31.7776 19.4943 31.761C19.511 31.7527 19.5276 31.7443 19.5442 31.736C19.702 31.653 19.8599 31.5616 20.0053 31.4577C20.0551 31.4245 20.105 31.3871 20.1548 31.3497C20.1797 31.3331 20.2047 31.3123 20.2254 31.2957C20.2587 31.2708 20.2919 31.2417 20.3251 31.2126C20.3293 31.2085 20.3334 31.2043 20.3376 31.2043C20.3708 31.1753 20.4041 31.1503 20.4373 31.1213C20.4664 31.0963 20.4954 31.0673 20.5245 31.0423C20.5494 31.0174 20.5744 30.9925 20.5993 30.9717C20.6242 30.9468 20.6533 30.9177 20.6782 30.8928C20.7031 30.8679 20.7239 30.8429 20.7447 30.818C20.7488 30.8139 20.7571 30.8056 20.7613 30.8014C20.7821 30.7765 20.807 30.7516 20.8278 30.7266C20.8776 30.6726 20.9233 30.6145 20.969 30.5563C21.0147 30.4982 21.0604 30.44 21.1019 30.3777C21.1227 30.3486 21.1435 30.3195 21.1642 30.2863C21.1808 30.2572 21.2016 30.2282 21.2182 30.2032C21.2224 30.1991 21.2265 30.1908 21.2307 30.1825C21.2473 30.1534 21.2639 30.1285 21.2805 30.0994C21.2805 30.0994 21.2805 30.0952 21.2847 30.0952C21.3013 30.0703 21.3138 30.0454 21.3262 30.0205C21.347 29.9831 21.3678 29.9415 21.3927 29.9C21.4093 29.8668 21.4259 29.8335 21.4425 29.8003C21.4592 29.7712 21.4716 29.738 21.4841 29.7089C21.4882 29.7006 21.4924 29.6923 21.4924 29.6881C21.5049 29.6591 21.5215 29.63 21.5339 29.5968C21.5505 29.5635 21.563 29.5261 21.5755 29.4929C21.5879 29.4638 21.6004 29.4306 21.6129 29.4015C21.6295 29.3558 21.6461 29.3101 21.6627 29.2603C21.671 29.2395 21.6752 29.2188 21.6835 29.198C21.6876 29.1814 21.6959 29.1606 21.7001 29.144C21.7084 29.1108 21.7209 29.0775 21.7292 29.0443C21.7458 28.9778 21.7624 28.9114 21.779 28.8407C21.779 28.8407 21.779 28.8366 21.779 28.8324C21.7873 28.7951 21.7956 28.7618 21.7998 28.7244C21.8081 28.6871 21.8122 28.6497 21.8205 28.6123C21.8247 28.5749 21.833 28.5375 21.8372 28.5001C21.8413 28.4586 21.8496 28.4129 21.8538 28.3714C21.8579 28.3423 21.8621 28.3132 21.8621 28.2841C21.8621 28.2675 21.8662 28.2509 21.8662 28.2343C21.8704 28.2094 21.8704 28.1844 21.8704 28.1595C21.8704 28.1553 21.8704 28.1512 21.8704 28.1429C21.8704 28.1097 21.8745 28.0806 21.8745 28.0473C21.8745 28.0349 21.8745 28.0266 21.8745 28.0141C21.8745 27.9809 21.8745 27.9435 21.8745 27.9103C21.8745 25.8208 20.3791 24.072 18.3977 23.6816V19.6481H24.0097V18.8173C24.0097 17.3593 25.1977 16.1713 26.6557 16.1713C28.1138 16.1713 29.3018 17.3593 29.3018 18.8173V19.6481H35.1214V19.6398ZM28.1719 9.94867H26.5103C26.5103 8.54048 27.2871 7.26523 28.5416 6.61721C29.4181 6.16443 29.9664 5.27134 29.9664 4.2827C29.9664 3.58484 29.6922 2.92437 29.1979 2.43005C28.7036 1.93573 28.0431 1.66157 27.3453 1.66157C25.8997 1.66157 24.7241 2.83714 24.7241 4.2827H23.0626C23.0626 1.91912 24.9858 0 27.3453 0C28.4876 0 29.5635 0.44447 30.3735 1.25449C31.1835 2.0645 31.628 3.14037 31.628 4.2827C31.628 5.89443 30.739 7.35661 29.3018 8.09186C28.6039 8.4574 28.1719 9.16773 28.1719 9.94867Z" fill="#DD8304"/>
<path d="M28.1713 11.4442H26.5098V13.1141H28.1713V11.4442Z" fill="#DD8304"/>
</svg>
