<svg width="47" height="47" viewBox="0 0 47 47" fill="none" xmlns="http://www.w3.org/2000/svg">
<g clip-path="url(#clip0_207_152)">
<path d="M44.4145 8.30595e-08H2.60098C1.16916 0.000717246 0.00843056 1.16216 0.00878915 2.59434V44.4078C0.00950631 45.8396 1.17095 47.0004 2.60313 47H44.4145C45.847 47.0004 47.0084 45.8393 47.0088 44.4067C47.0088 44.4064 47.0088 44.406 47.0088 44.4057V2.59219C47.0081 1.16037 45.8466 -0.000358498 44.4145 8.30595e-08Z" fill="#4267B2"/>
<path d="M25.7538 38V24.7902H30.1939L30.8591 19.6196H25.7538V16.3266C25.7538 14.833 26.1672 13.8153 28.3026 13.8153H31.0088V9.20328C30.538 9.14047 28.9225 9 27.0429 9C23.1183 9 20.4323 11.4018 20.4323 15.8145V19.6196H16.0088V24.7902H20.4323V38H25.7538Z" fill="white"/>
</g>
<defs>
<clipPath id="clip0_207_152">
<rect width="47" height="47" fill="white"/>
</clipPath>
</defs>
</svg>
