<svg width="29" height="29" viewBox="0 0 29 29" fill="none" xmlns="http://www.w3.org/2000/svg">
<path d="M22.5664 1.37793C19.1475 1.37793 16.3652 4.16019 16.3652 7.5791C16.3652 10.998 19.1475 13.7803 22.5664 13.7803C25.9853 13.7803 28.7676 10.998 28.7676 7.5791C28.7676 4.16019 25.9853 1.37793 22.5664 1.37793ZM23.2554 10.7155C23.2554 11.0958 22.9467 11.4045 22.5664 11.4045C22.1861 11.4045 21.8774 11.0958 21.8774 10.7155V10.3352C21.8774 9.95483 22.1861 9.64615 22.5664 9.64615C22.9467 9.64615 23.2554 9.95483 23.2554 10.3352V10.7155ZM23.2554 7.95943C23.2554 8.33977 22.9467 8.64845 22.5664 8.64845C22.1861 8.64845 21.8774 8.33977 21.8774 7.95943V4.82302C21.8774 4.44268 22.1861 4.134 22.5664 4.134C22.9467 4.134 23.2554 4.44268 23.2554 4.82302V7.95943Z" fill="#0D0DF9"/>
<path d="M2.18555 9.64584H8.49971L8.1745 6.88977H2.50939L2.18555 9.64584Z" fill="#0D0DF9"/>
<path d="M2.021 11.0243L0.00493062 28.1685C-0.018496 28.3669 0.0421378 28.5571 0.174429 28.7073C0.306721 28.8561 0.49 28.9388 0.689815 28.9388H9.99156C10.1914 28.9388 10.3733 28.8561 10.507 28.7073C10.6392 28.5584 10.6999 28.3669 10.6764 28.1685L8.659 11.0243H2.021ZM28.0783 17.9145H10.8556L12.0435 28.0072C12.082 28.3255 12.0379 28.6425 11.9332 28.9388H28.0783C28.4573 28.9388 28.7673 28.6287 28.7673 28.2498V18.6035C28.7673 18.2245 28.4573 17.9145 28.0783 17.9145ZM17.743 22.7376C17.743 23.1179 17.4343 23.4266 17.054 23.4266C16.6737 23.4266 16.365 23.1179 16.365 22.7376V19.9815C16.365 19.6012 16.6737 19.2925 17.054 19.2925C17.4343 19.2925 17.743 19.6012 17.743 19.9815V22.7376ZM21.8771 22.7376C21.8771 23.1179 21.5685 23.4266 21.1881 23.4266C20.8078 23.4266 20.4991 23.1179 20.4991 22.7376V19.9815C20.4991 19.6012 20.8078 19.2925 21.1881 19.2925C21.5685 19.2925 21.8771 19.6012 21.8771 19.9815V22.7376ZM26.0112 22.7376C26.0112 23.1179 25.7026 23.4266 25.3222 23.4266C24.9419 23.4266 24.6332 23.1179 24.6332 22.7376V19.9815C24.6332 19.6012 24.9419 19.2925 25.3222 19.2925C25.7026 19.2925 26.0112 19.6012 26.0112 19.9815V22.7376ZM11.5419 4.13411C12.614 4.13411 13.6227 3.71657 14.382 2.95727L15.1895 2.14974C15.687 1.65227 16.3484 1.37804 17.054 1.37804C17.4343 1.37804 17.743 1.06936 17.743 0.689018C17.743 0.30868 17.4343 0 17.054 0C15.9819 0 14.9732 0.417545 14.2139 1.17684L13.4063 1.98437C12.41 2.98069 10.6723 2.98069 9.67599 1.98437L8.86846 1.17684C8.12157 0.429948 7.08666 0 6.02971 0H5.16706C3.64708 0.00137804 2.41236 1.23748 2.41236 2.75607V3.44509C2.41236 3.82543 2.72104 4.13411 3.10138 4.13411C3.48172 4.13411 3.7904 3.82543 3.7904 3.44509V2.75607C3.7904 1.99678 4.40914 1.37941 5.16844 1.37804H6.02971C6.72424 1.37804 7.40361 1.65916 7.89557 2.15112L8.7031 2.95864C9.46102 3.71657 10.4684 4.13411 11.5419 4.13411Z" fill="#0D0DF9"/>
</svg>
