<svg width="48" height="48" viewBox="0 0 48 48" fill="none" xmlns="http://www.w3.org/2000/svg">
<g clip-path="url(#clip0_207_139)">
<path d="M46.6965 8.49601C46.2642 4.44515 43.0649 1.24519 39.0137 0.813217C28.8543 -0.271072 18.6652 -0.271072 8.50614 0.813217C4.45491 1.24555 1.25532 4.44515 0.822982 8.49601C-0.261307 18.6551 -0.261307 28.8445 0.822982 39.0036C1.25532 43.0548 4.45491 46.2544 8.50578 46.6867C18.6648 47.771 28.8543 47.771 39.0137 46.6867C43.0649 46.2544 46.2642 43.0548 46.6965 39.0036C47.7808 28.8445 47.7808 18.6554 46.6965 8.49601Z" fill="url(#paint0_radial_207_139)"/>
<path d="M44.1118 10.2149C43.7284 6.62028 40.8894 3.78091 37.2944 3.39713C28.2794 2.43533 19.2377 2.43533 10.2227 3.39713C6.62809 3.78091 3.78872 6.62028 3.40494 10.2149C2.44314 19.2298 2.44314 28.2716 3.40494 37.2862C3.78872 40.8812 6.62809 43.7206 10.2227 44.104C19.2377 45.0661 28.2794 45.0661 37.294 44.104C40.889 43.7206 43.7284 40.8812 44.1118 37.2862C45.074 28.2716 45.074 19.2298 44.1118 10.2149Z" fill="url(#paint1_linear_207_139)"/>
<path d="M0.720703 38.0195C0.753319 38.3479 0.787022 38.6762 0.822174 39.0045C1.25451 43.0554 4.45411 46.255 8.50533 46.6873C18.6644 47.7716 28.8539 47.7716 39.0129 46.6873C43.0641 46.255 46.2634 43.0554 46.6957 39.0045C46.7309 38.6762 46.7646 38.3479 46.7975 38.0195H0.720703Z" fill="url(#paint2_linear_207_139)"/>
<path d="M46.695 39.0025C47.2778 33.5437 47.5466 28.0763 47.5032 22.6095L36.6458 11.7521C35.2893 10.2036 33.3081 9.23711 30.9801 9.15339C26.1925 8.98089 21.3896 8.98959 16.6013 9.15412C12.6244 9.2911 9.84334 11.9641 9.13014 15.8929C9.00439 16.5865 8.92901 17.2892 8.83008 17.9879V29.5055C8.8848 29.8788 8.96525 30.2503 8.99026 30.6257C9.14971 33.0154 10.1318 35.0622 11.7042 36.4469L22.753 47.4952C28.1751 47.5333 33.5977 47.2637 39.0122 46.6857C43.0634 46.2533 46.2627 43.0537 46.695 39.0025Z" fill="url(#paint3_linear_207_139)"/>
<path d="M46.6954 39.0052C46.2635 43.0557 43.0631 46.256 39.0126 46.688C33.5988 47.2656 28.1752 47.5356 22.7537 47.4976L11.7217 36.4655C13.0006 37.585 14.6676 38.2666 16.6021 38.3395C21.3893 38.5192 26.1932 38.5145 30.9805 38.342C35.3104 38.1855 38.4437 34.9808 38.5788 30.6509C38.7231 26.0535 38.7231 21.4442 38.5788 16.8469C38.5172 14.8493 37.816 13.0917 36.6534 11.7617L47.5039 22.6122C47.5467 28.0782 47.2778 33.5464 46.6954 39.0052Z" fill="url(#paint4_linear_207_139)"/>
<path d="M29.3633 18.6053C27.9725 17.0908 25.9768 16.1406 23.7585 16.1406C19.5569 16.1406 16.1504 19.5471 16.1504 23.7488C16.1504 25.967 17.1006 27.9627 18.615 29.3536L36.2177 46.9562C37.1494 46.8751 38.0811 46.7848 39.0121 46.6855C43.0634 46.2532 46.263 43.0536 46.6953 39.0024C46.7946 38.0714 46.8848 37.1397 46.966 36.2079L29.3633 18.6053Z" fill="url(#paint5_linear_207_139)"/>
<path d="M47.4176 28.8662L33.2508 14.6997C32.9203 14.266 32.3996 13.9844 31.8121 13.9844C30.8126 13.9844 30.002 14.7947 30.002 15.7945C30.002 16.382 30.2835 16.9027 30.7173 17.2333L47.1643 33.6806C47.2759 32.0763 47.3604 30.4712 47.4176 28.8662Z" fill="url(#paint6_linear_207_139)"/>
<path d="M8.83008 17.9879C8.92901 17.2892 9.00439 16.5865 9.13014 15.8929C9.84297 11.9641 12.6244 9.2911 16.6013 9.15412C21.3896 8.98959 26.1925 8.98089 30.9801 9.15339C35.3085 9.30922 38.4433 12.5143 38.5784 16.8442C38.7223 21.4419 38.7223 26.0508 38.5784 30.6485C38.4433 34.9785 35.3096 38.1831 30.9804 38.3393C26.1928 38.5122 21.3889 38.5165 16.6017 38.3368C12.2725 38.1741 9.27981 34.9618 8.99026 30.6254C8.96525 30.2503 8.8848 29.8785 8.83008 29.5052C8.83008 25.666 8.83008 21.8267 8.83008 17.9879ZM23.7622 35.7732C25.9533 35.7732 28.1465 35.8388 30.3347 35.758C33.7655 35.6308 35.8757 33.5832 35.9558 30.1557C36.0551 25.8849 36.0551 21.6082 35.9558 17.337C35.8757 13.9102 33.764 11.8148 30.3347 11.742C25.9819 11.6499 21.6245 11.6507 17.2717 11.742C13.8685 11.8134 11.7521 13.8664 11.6597 17.2555C11.5422 21.5803 11.5422 25.9128 11.6597 30.2376C11.7521 33.6264 13.8685 35.6319 17.2721 35.758C19.4327 35.8384 21.5987 35.7732 23.7622 35.7732Z" fill="url(#paint7_linear_207_139)"/>
<path d="M8.83008 17.9879C8.92901 17.2892 9.00439 16.5865 9.13014 15.8929C9.84297 11.9641 12.6244 9.2911 16.6013 9.15412C21.3896 8.98959 26.1925 8.98089 30.9801 9.15339C35.3085 9.30922 38.4433 12.5143 38.5784 16.8442C38.7223 21.4419 38.7223 26.0508 38.5784 30.6485C38.4433 34.9785 35.3096 38.1831 30.9804 38.3393C26.1928 38.5122 21.3889 38.5165 16.6017 38.3368C12.2725 38.1741 9.27981 34.9618 8.99026 30.6254C8.96525 30.2503 8.8848 29.8785 8.83008 29.5052C8.83008 25.666 8.83008 21.8267 8.83008 17.9879ZM23.7622 35.7732C25.9533 35.7732 28.1465 35.8388 30.3347 35.758C33.7655 35.6308 35.8757 33.5832 35.9558 30.1557C36.0551 25.8849 36.0551 21.6082 35.9558 17.337C35.8757 13.9102 33.764 11.8148 30.3347 11.742C25.9819 11.6499 21.6245 11.6507 17.2717 11.742C13.8685 11.8134 11.7521 13.8664 11.6597 17.2555C11.5422 21.5803 11.5422 25.9128 11.6597 30.2376C11.7521 33.6264 13.8685 35.6319 17.2721 35.758C19.4327 35.8384 21.5987 35.7732 23.7622 35.7732Z" fill="white"/>
<path d="M23.7585 16.1406C19.5569 16.1406 16.1504 19.5468 16.1504 23.7484C16.1504 27.9504 19.5569 31.3565 23.7585 31.3565C27.9605 31.3565 31.3667 27.9504 31.3667 23.7484C31.3667 19.5468 27.9605 16.1406 23.7585 16.1406ZM23.7585 28.7371C21.0032 28.7371 18.7698 26.5037 18.7698 23.7484C18.7698 20.9931 21.0032 18.7597 23.7585 18.7597C26.5138 18.7597 28.7473 20.9931 28.7473 23.7484C28.7473 26.5037 26.5138 28.7371 23.7585 28.7371Z" fill="white"/>
<path d="M33.6209 15.7945C33.6209 16.794 32.8106 17.6043 31.8111 17.6043C30.8117 17.6043 30.001 16.794 30.001 15.7945C30.001 14.7947 30.8117 13.9844 31.8111 13.9844C32.8106 13.9844 33.6209 14.7947 33.6209 15.7945Z" fill="white"/>
</g>
<defs>
<radialGradient id="paint0_radial_207_139" cx="0" cy="0" r="1" gradientUnits="userSpaceOnUse" gradientTransform="translate(9.74699 41.5112) scale(52.3841)">
<stop stop-color="#FAE100"/>
<stop offset="0.0544" stop-color="#FADC04"/>
<stop offset="0.1167" stop-color="#FBCE0E"/>
<stop offset="0.1829" stop-color="#FCB720"/>
<stop offset="0.2514" stop-color="#FE9838"/>
<stop offset="0.3054" stop-color="#FF7950"/>
<stop offset="0.4922" stop-color="#FF1C74"/>
<stop offset="1" stop-color="#6C1CD1"/>
</radialGradient>
<linearGradient id="paint1_linear_207_139" x1="18.2267" y1="20.6391" x2="-62.2438" y2="-24.6256" gradientUnits="userSpaceOnUse">
<stop stop-color="#A1B5D8" stop-opacity="0"/>
<stop offset="0.3094" stop-color="#90A2BD" stop-opacity="0.309804"/>
<stop offset="0.7554" stop-color="#7C8B9C" stop-opacity="0.756863"/>
<stop offset="1" stop-color="#748290"/>
</linearGradient>
<linearGradient id="paint2_linear_207_139" x1="23.759" y1="41.931" x2="23.759" y2="49.335" gradientUnits="userSpaceOnUse">
<stop stop-color="#FAE100" stop-opacity="0"/>
<stop offset="0.3068" stop-color="#FCA800" stop-opacity="0.305882"/>
<stop offset="0.6275" stop-color="#FE7300" stop-opacity="0.627451"/>
<stop offset="0.8685" stop-color="#FF5200" stop-opacity="0.866667"/>
<stop offset="1" stop-color="#FF4500"/>
</linearGradient>
<linearGradient id="paint3_linear_207_139" x1="21.056" y1="20.9794" x2="9.30052" y2="9.22393" gradientUnits="userSpaceOnUse">
<stop stop-color="#833AB4" stop-opacity="0"/>
<stop offset="1" stop-color="#833AB4"/>
</linearGradient>
<linearGradient id="paint4_linear_207_139" x1="32.5628" y1="43.4458" x2="26.6955" y2="15.7855" gradientUnits="userSpaceOnUse">
<stop stop-color="#833AB4" stop-opacity="0"/>
<stop offset="1" stop-color="#833AB4"/>
</linearGradient>
<linearGradient id="paint5_linear_207_139" x1="34.7953" y1="34.7855" x2="11.2287" y2="11.2189" gradientUnits="userSpaceOnUse">
<stop stop-color="#833AB4" stop-opacity="0"/>
<stop offset="1" stop-color="#833AB4"/>
</linearGradient>
<linearGradient id="paint6_linear_207_139" x1="36.5445" y1="20.5268" x2="28.7514" y2="12.7338" gradientUnits="userSpaceOnUse">
<stop stop-color="#833AB4" stop-opacity="0"/>
<stop offset="1" stop-color="#833AB4"/>
</linearGradient>
<linearGradient id="paint7_linear_207_139" x1="33.1894" y1="14.3834" x2="13.9746" y2="33.5982" gradientUnits="userSpaceOnUse">
<stop stop-color="#833AB4"/>
<stop offset="0.0922" stop-color="#9C3495"/>
<stop offset="0.2927" stop-color="#DC2546"/>
<stop offset="0.392" stop-color="#FD1D1D"/>
<stop offset="0.5589" stop-color="#FC6831"/>
<stop offset="0.6887" stop-color="#FC9B40"/>
<stop offset="0.7521" stop-color="#FCAF45"/>
<stop offset="0.7806" stop-color="#FDB750"/>
<stop offset="0.8656" stop-color="#FECB6A"/>
<stop offset="0.9415" stop-color="#FFD87A"/>
<stop offset="1" stop-color="#FFDC80"/>
</linearGradient>
<clipPath id="clip0_207_139">
<rect width="47.5" height="47.5" fill="white"/>
</clipPath>
</defs>
</svg>
