<svg width="25" height="24" viewBox="0 0 25 24" fill="none" xmlns="http://www.w3.org/2000/svg">
<path fill-rule="evenodd" clip-rule="evenodd" d="M12.5 1.7146C17.6777 1.7146 21.875 5.74404 21.875 10.7146C21.8748 17.332 14.6571 21.2453 12.8877 22.1052C12.6411 22.225 12.3589 22.225 12.1123 22.1052C10.3429 21.2453 3.12518 17.332 3.125 10.7146C3.125 5.74404 7.32233 1.7146 12.5 1.7146ZM12.5 6.85718C10.281 6.85718 8.48242 8.58436 8.48242 10.7146C8.48256 12.8447 10.2811 14.571 12.5 14.571C14.7189 14.571 16.5174 12.8447 16.5176 10.7146C16.5176 8.58436 14.719 6.85718 12.5 6.85718Z" fill="url(#paint0_linear_213_92)"/>
<defs>
<linearGradient id="paint0_linear_213_92" x1="21.875" y1="11.9548" x2="3.125" y2="11.9548" gradientUnits="userSpaceOnUse">
<stop stop-color="#FCE172"/>
<stop offset="1" stop-color="#FF09F4"/>
</linearGradient>
</defs>
</svg>
