<svg width="25" height="24" viewBox="0 0 25 24" fill="none" xmlns="http://www.w3.org/2000/svg">
<path fill-rule="evenodd" clip-rule="evenodd" d="M21.875 10.963V15.0002C21.875 17.8285 21.8748 19.2426 20.9961 20.1212C20.1174 20.9998 18.7033 21.0002 15.875 21.0002H9.125C6.29666 21.0002 4.88259 20.9998 4.00391 20.1212C3.12524 19.2426 3.125 17.8285 3.125 15.0002V10.963C3.125 10.7617 3.12736 10.5709 3.12793 10.3898L4.97656 12.1642C5.53517 12.7005 6.28035 13.0001 7.05469 13.0002H17.9453C18.7196 13.0001 19.4639 12.7004 20.0225 12.1642L21.8711 10.3888C21.8717 10.5702 21.875 10.7613 21.875 10.963ZM12.5 3.17398C12.9088 3.17398 13.2956 3.33993 14.0693 3.67007L18.2295 5.44449C19.9973 6.19875 20.8811 6.57619 21.3779 7.32828C21.4839 7.48866 21.5653 7.65919 21.6309 7.84586L18.6377 10.7218C18.4516 10.9004 18.2033 11.0001 17.9453 11.0002H7.05469C6.79665 11.0001 6.54748 10.9005 6.36133 10.7218L3.36719 7.84683C3.43284 7.65958 3.51585 7.48908 3.62207 7.32828C4.11888 6.5762 5.0027 6.19875 6.77051 5.44449L10.9307 3.67007C11.7044 3.33993 12.0912 3.17398 12.5 3.17398Z" fill="url(#paint0_linear_213_83)"/>
<defs>
<linearGradient id="paint0_linear_213_83" x1="21.875" y1="12.0871" x2="3.125" y2="12.0871" gradientUnits="userSpaceOnUse">
<stop stop-color="#FCE172"/>
<stop offset="1" stop-color="#FF09F4"/>
</linearGradient>
</defs>
</svg>
