<svg width="36" height="36" viewBox="0 0 36 36" fill="none" xmlns="http://www.w3.org/2000/svg">
<g clip-path="url(#clip0_169_175)">
<path d="M33.4186 15.6696H31.9372C31.5291 15.6696 31.1993 15.9994 31.1993 16.4075C31.1993 16.8156 31.5291 17.1454 31.9372 17.1454H33.4186C33.8267 17.1454 34.1565 16.8156 34.1565 16.4075C34.1565 15.9994 33.8267 15.6696 33.4186 15.6696ZM28.3482 4.90269L27.3028 5.94807C27.0121 6.23876 27.0121 6.70276 27.3028 6.99345C27.5935 7.28415 28.0575 7.28415 28.3482 6.99345L29.3936 5.94807C29.6843 5.65737 29.6843 5.19338 29.3936 4.90269C29.1029 4.61758 28.6389 4.61758 28.3482 4.90269ZM8.47477 6.99904C8.76547 6.70835 8.76547 6.24435 8.47477 5.95366L7.42939 4.90828C7.1387 4.61758 6.6747 4.61758 6.38401 4.90828C6.09332 5.19897 6.09332 5.66296 6.38401 5.95366L7.42939 6.99904C7.72009 7.28415 8.18967 7.28415 8.47477 6.99904ZM3.83484 15.6696H2.35901C1.95092 15.6696 1.62109 15.9994 1.62109 16.4075C1.62109 16.8156 1.95092 17.1454 2.35901 17.1454H3.84043C4.24852 17.1454 4.57835 16.8156 4.57835 16.4075C4.57835 15.9994 4.24852 15.6696 3.83484 15.6696ZM17.8888 3.09703C18.2969 3.09703 18.6267 2.7672 18.6267 2.35911V0.877687C18.6267 0.469597 18.2969 0.139771 17.8888 0.139771C17.4807 0.139771 17.1509 0.469597 17.1509 0.877687V2.35911C17.1509 2.7672 17.4807 3.09703 17.8888 3.09703ZM22.3275 29.7235H13.4501C12.6339 29.7235 11.9687 30.3832 11.9687 31.2049C11.9687 32.0211 12.6283 32.6864 13.4501 32.6864H22.3275C23.1437 32.6864 23.8089 32.0267 23.8089 31.2049C23.8033 30.3832 23.1437 29.7235 22.3275 29.7235ZM23.8033 25.2848H11.9743C11.1581 25.2848 10.4929 25.9445 10.4929 26.7663C10.4929 27.5824 11.1525 28.2477 11.9743 28.2477H23.8089C24.6251 28.2477 25.2903 27.588 25.2903 26.7663C25.2847 25.9445 24.6195 25.2848 23.8033 25.2848ZM17.1509 35.638H18.6323C19.7224 35.638 20.6616 35.0399 21.1759 34.1566H14.6073C15.116 35.0399 16.0552 35.638 17.1509 35.638ZM17.8888 9.01154C14.6241 9.01154 11.9743 11.6669 11.9743 14.9261C11.9743 18.1852 14.6241 20.8462 17.8888 20.8462C21.1535 20.8462 23.8033 18.1908 23.8033 14.9316C23.8033 11.6725 21.1535 9.01154 17.8888 9.01154ZM21.3715 13.9757L17.6764 17.6709C17.2627 18.1069 16.7763 17.8162 16.631 17.6709L15.1496 16.1895C14.8589 15.8988 14.8589 15.4348 15.1496 15.1441C15.4403 14.8534 15.9043 14.8534 16.1949 15.1441L17.1509 16.1L20.3262 12.9247C20.6169 12.634 21.0808 12.634 21.3715 12.9247C21.6566 13.2154 21.6566 13.685 21.3715 13.9757Z" fill="#009B5C"/>
<path d="M17.889 4.57849C11.762 4.57849 6.79785 9.54266 6.79785 15.6696C6.79785 18.8952 8.18983 21.7798 10.3868 23.8035H11.9744H23.8091H25.3967C27.5937 21.7798 28.9857 18.8952 28.9857 15.6696C28.9801 9.54266 24.0159 4.57849 17.889 4.57849ZM17.889 22.3276C13.8136 22.3276 10.493 19.0126 10.493 14.9317C10.493 10.8508 13.8136 7.53575 17.889 7.53575C21.9643 7.53575 25.2849 10.8508 25.2849 14.9317C25.2849 19.0126 21.9643 22.3276 17.889 22.3276Z" fill="#009B5C"/>
</g>
<defs>
<clipPath id="clip0_169_175">
<rect width="35.7778" height="35.7778" fill="white"/>
</clipPath>
</defs>
</svg>
