<svg width="48" height="48" viewBox="0 0 48 48" fill="none" xmlns="http://www.w3.org/2000/svg">
<rect width="48" height="48" rx="3" fill="black"/>
<path fill-rule="evenodd" clip-rule="evenodd" d="M30.5258 8.61328C31.0134 12.7758 33.5073 15.7128 37.542 15.9718V19.9199L37.5159 19.9224V16.5686C33.4813 16.3098 31.1616 13.8273 30.6741 9.66481L26.4 9.66472V27.1768C27.0168 35.0592 20.8749 35.2934 18.5255 32.3048C21.2812 34.0283 25.7556 32.9081 25.225 26.1254V8.61328H30.5258H30.5258ZM19.042 37.6439C16.627 37.147 14.431 35.7041 13.1414 33.5943C10.0084 28.4686 12.8325 20.1147 21.9194 19.255V24.1907L21.9045 24.1932V20.4901C13.48 21.8318 12.6342 30.8814 14.9673 34.6457C15.867 36.0974 17.344 37.1185 19.0419 37.6439H19.042Z" fill="#26F4EE"/>
<path fill-rule="evenodd" clip-rule="evenodd" d="M31.7494 9.66488C32.0677 12.3823 33.167 14.6951 35.0142 16.0459C32.5146 15.083 31.0498 12.8732 30.6738 9.66461L31.7494 9.66488ZM37.5155 17.1543C37.8594 17.2273 38.218 17.2767 38.5912 17.3006V21.9806C36.2508 22.2111 34.2027 21.4406 31.8159 20.0054L32.1823 28.0205C32.1823 30.6052 32.192 31.7866 30.8049 34.1644C27.6934 39.4987 22.0927 39.9203 18.3053 37.3795C23.2577 39.4232 30.7549 36.9427 30.7403 28.0205V19.2725C33.127 20.7078 35.1751 21.4782 37.5155 21.2477V17.1543ZM21.9042 20.5371C22.3938 20.4352 22.9076 20.3568 23.448 20.3057V25.2414C21.4803 25.5656 20.2305 26.1698 19.646 27.2874C17.8054 30.8071 20.1753 33.5987 22.8263 34.0183C19.7447 34.5304 16.1309 31.4072 18.2854 27.2874C18.8697 26.17 19.9365 25.5656 21.9042 25.2414V20.5371Z" fill="#FB2C53"/>
<path fill-rule="evenodd" clip-rule="evenodd" d="M30.6742 9.66415C31.1618 13.8267 33.4815 16.309 37.5161 16.568V21.2478C35.1756 21.4784 33.1275 20.7079 30.7408 19.2726V28.0206C30.7595 39.4384 18.4767 40.3072 14.9675 34.645C12.6345 30.8805 13.4802 21.8311 21.9048 20.4894V25.2414C19.937 25.5656 18.8702 26.17 18.2859 27.2874C14.6746 34.1931 27.2705 38.3016 26.4001 27.1762V9.66406L30.6741 9.66415H30.6742Z" fill="white"/>
</svg>
