<svg width="49" height="23" viewBox="0 0 49 23" fill="none" xmlns="http://www.w3.org/2000/svg">
<path d="M14.8182 10.261C14.4772 10.416 14.4152 10.571 14.4152 10.85C14.4152 11.253 14.6632 11.408 14.9112 11.439C17.6702 12.028 18.8482 13.919 18.8482 16.058C18.8482 19.654 16.4302 22.32 11.9662 22.32H0.000207044V0.496006H10.1682C14.9422 0.496006 17.8562 2.38701 17.8562 6.29301C17.8562 8.18401 16.5232 9.51701 14.8182 10.261ZM9.85821 4.83601H5.20821V9.05201H9.73421C11.6252 9.05201 12.6482 8.15301 12.6482 6.82001C12.6482 5.45601 11.7492 4.83601 9.85821 4.83601ZM5.20821 17.98H10.4162C12.5242 17.98 13.6402 17.143 13.6402 15.624C13.6402 14.198 12.4002 13.268 10.2922 13.268H5.20821V17.98ZM19.8666 11.408C19.8666 5.11501 23.6796 6.4373e-06 30.9026 6.4373e-06C37.7536 6.4373e-06 40.8226 4.61901 41.1946 8.74201H36.0176C35.7076 6.85101 34.2506 4.46401 30.9646 4.46401C27.2756 4.46401 25.0746 7.56401 25.0746 11.408C25.0746 15.252 27.2756 18.352 30.9646 18.352C34.2506 18.352 35.7076 15.965 36.0176 14.074H41.1946C40.8226 18.197 37.7536 22.816 30.9026 22.816C23.6796 22.816 19.8666 17.701 19.8666 11.408ZM42.6741 22.32V16.864H48.1301V22.32H42.6741Z" fill="white"/>
</svg>
